<?xml version="1.0" encoding="UTF-8"?>
<svg id="Capa_2" data-name="Capa 2" xmlns="http://www.w3.org/2000/svg" viewBox="0 0 34.6 47.49">
  <defs>
    <style>
      .cls-1 {
        fill: #57b3df;
      }

      .cls-1, .cls-2, .cls-3, .cls-4, .cls-5, .cls-6, .cls-7, .cls-8, .cls-9, .cls-10, .cls-11, .cls-12, .cls-13, .cls-14, .cls-15, .cls-16, .cls-17, .cls-18, .cls-19, .cls-20, .cls-21, .cls-22, .cls-23, .cls-24, .cls-25, .cls-26, .cls-27, .cls-28, .cls-29, .cls-30, .cls-31, .cls-32, .cls-33, .cls-34, .cls-35, .cls-36, .cls-37, .cls-38, .cls-39, .cls-40, .cls-41, .cls-42, .cls-43, .cls-44, .cls-45, .cls-46, .cls-47, .cls-48, .cls-49, .cls-50, .cls-51, .cls-52, .cls-53, .cls-54, .cls-55, .cls-56, .cls-57, .cls-58, .cls-59, .cls-60, .cls-61, .cls-62, .cls-63, .cls-64, .cls-65, .cls-66, .cls-67, .cls-68, .cls-69, .cls-70, .cls-71, .cls-72, .cls-73 {
        stroke-width: 0px;
      }

      .cls-2 {
        fill: #368cb5;
      }

      .cls-3 {
        fill: #f1e5b6;
      }

      .cls-4 {
        fill: #378ec3;
      }

      .cls-5 {
        fill: #c19c41;
      }

      .cls-6 {
        fill: #f7b242;
      }

      .cls-7 {
        fill: #3784a9;
      }

      .cls-8 {
        fill: #307fa5;
      }

      .cls-9 {
        fill: #2e7aa2;
      }

      .cls-10 {
        fill: #418fb4;
      }

      .cls-11 {
        fill: #565da1;
      }

      .cls-12 {
        fill: #5791ac;
      }

      .cls-13 {
        fill: #b8902e;
      }

      .cls-14 {
        fill: #c8ab62;
      }

      .cls-15 {
        fill: #293584;
      }

      .cls-16 {
        fill: #d0b26b;
      }

      .cls-17 {
        fill: #dac38c;
      }

      .cls-18 {
        fill: #f9b03d;
      }

      .cls-19 {
        fill: #2f83ae;
      }

      .cls-20 {
        fill: #d9ba71;
      }

      .cls-21 {
        fill: #f8b03e;
      }

      .cls-22 {
        fill: #eadfae;
      }

      .cls-23 {
        fill: #c1993a;
      }

      .cls-24 {
        fill: #dfcb9a;
      }

      .cls-25 {
        fill: #ede5cb;
      }

      .cls-26 {
        fill: #c49f45;
      }

      .cls-27 {
        fill: #334278;
      }

      .cls-28 {
        fill: #97d0eb;
      }

      .cls-29 {
        fill: #ede5c8;
      }

      .cls-30 {
        fill: #3c8fc8;
      }

      .cls-31 {
        fill: #caa856;
      }

      .cls-32 {
        fill: #eee0a4;
      }

      .cls-33 {
        fill: #efe9d4;
      }

      .cls-34 {
        fill: #b89131;
      }

      .cls-35 {
        fill: #e9ddbe;
      }

      .cls-36 {
        fill: #414995;
      }

      .cls-37 {
        fill: #d7b76d;
      }

      .cls-38 {
        fill: #ebd891;
      }

      .cls-39 {
        fill: #404894;
      }

      .cls-40 {
        fill: #f5eedb;
      }

      .cls-41 {
        fill: #4891b4;
      }

      .cls-42 {
        fill: #e1c78a;
      }

      .cls-43 {
        fill: #e3c889;
      }

      .cls-44 {
        fill: #3c86c2;
      }

      .cls-45 {
        fill: #d6c69a;
      }

      .cls-46 {
        fill: #3089b5;
      }

      .cls-47 {
        fill: #cfb87d;
      }

      .cls-48 {
        fill: #ccac5e;
      }

      .cls-49 {
        fill: #3485b5;
      }

      .cls-50 {
        fill: #e5d4ad;
      }

      .cls-51 {
        fill: #5eb6e0;
      }

      .cls-52 {
        fill: #c39d41;
      }

      .cls-53 {
        fill: #bb8f24;
      }

      .cls-54 {
        fill: #f4edd9;
      }

      .cls-55 {
        fill: #85c8e7;
      }

      .cls-56 {
        fill: #2f7aa5;
      }

      .cls-57 {
        fill: #3b91ca;
      }

      .cls-58 {
        fill: #c9a449;
      }

      .cls-59 {
        fill: #e5ce87;
      }

      .cls-60 {
        fill: #39a4d9;
      }

      .cls-61 {
        fill: #cfb065;
      }

      .cls-62 {
        fill: #3298c7;
      }

      .cls-63 {
        fill: #e4cd88;
      }

      .cls-64 {
        fill: #ebdeba;
      }

      .cls-65 {
        fill: #cca850;
      }

      .cls-66 {
        fill: #5892ae;
      }

      .cls-67 {
        fill: #bc9027;
      }

      .cls-68 {
        fill: #6dbde3;
      }

      .cls-69 {
        fill: #55a8cf;
      }

      .cls-70 {
        fill: #6fabc8;
      }

      .cls-71 {
        fill: #f2e7bd;
      }

      .cls-72 {
        fill: #4fafde;
      }

      .cls-73 {
        fill: #2e709b;
      }
    </style>
  </defs>
  <g id="Capa_1-2" data-name="Capa 1">
    <g>
      <path class="cls-15" d="m7.58,46.59c-1.28-.27-2.55-.59-3.66-1.33-.12-.08-.23-.18-.33-.29-.4-.44-.4-.89.02-1.32.43-.44.97-.68,1.53-.9,1.16-.46,2.37-.72,3.59-.94,1.63-.29,3.27-.44,4.92-.56.2.03.29.2.4.33.15.18.31.35.48.51.4.38.75.81,1.15,1.19.03.04.08.08.07.14-.05.09-.15.1-.24.11-2.01.23-3.92.79-5.71,1.73-.67.35-1.31.74-1.9,1.22-.09.07-.17.16-.3.12Z"/>
      <path class="cls-15" d="m20.96,41.26c1.17.1,2.33.18,3.49.35,1.8.26,3.6.56,5.29,1.28.47.2.93.44,1.27.83.34.4.34.81,0,1.21-.11.13-.23.23-.36.33-.6.43-1.28.68-1.98.91-.5.16-1,.3-1.52.39-.09.04-.15-.03-.2-.08-1.71-1.37-3.68-2.2-5.8-2.68-.63-.14-1.27-.25-1.91-.31-.11-.01-.25,0-.31-.14,0-.11.07-.16.13-.23.21-.22.43-.43.64-.64.36-.34.7-.71,1.04-1.08.06-.06.11-.15.22-.14Z"/>
      <path class="cls-36" d="m7.58,46.59c.28-.11.48-.34.73-.5.72-.49,1.46-.91,2.25-1.27.97-.44,1.97-.77,3.01-1.01.65-.15,1.29-.28,1.96-.33.07,0,.14-.03.19-.07.11-.05.15.05.2.1.39.38.78.77,1.18,1.14.12.11.22.15.34.03.13-.06.18-.24.36-.22.3.08.61.05.91.07,1.47.12,2.89.43,4.27.95.9.34,1.76.76,2.56,1.29.04.03.09.05.11.09-.59.13-1.19.21-1.79.26-.07.04-.12,0-.18-.03-1.39-.69-2.86-1.08-4.39-1.28-.74-.1-1.48-.15-2.23-.12-1.34.04-2.65.24-3.94.62-.75.22-1.48.49-2.18.85-.91-.08-1.81-.23-2.71-.4-.22-.04-.45-.07-.66-.15Z"/>
      <path class="cls-11" d="m10.95,47.14c.03-.1.12-.14.2-.18,1.15-.51,2.33-.9,3.57-1.1.62-.1,1.24-.16,1.87-.22.7-.06,1.4-.04,2.1.02,1.63.14,3.2.51,4.7,1.19.17.08.32.17.49.25-.46.1-.93.12-1.39.16-2.2.2-4.4.26-6.61.21-1.57-.03-3.14-.13-4.71-.3-.07,0-.14-.03-.21-.04Z"/>
      <path class="cls-39" d="m25.66,46.84c-.12.01-.19-.07-.28-.13-1.1-.71-2.31-1.2-3.56-1.58-.7-.21-1.41-.35-2.13-.45-.55-.08-1.11-.15-1.66-.14-.09,0-.19.03-.25-.07-.04-.05,0-.08.03-.11.35-.31.66-.66,1-.98.04-.04.09-.1.16-.07.05.15.2.11.29.12,1.31.13,2.58.41,3.81.86,1.47.53,2.84,1.23,4.04,2.25.01.01.04.01.06.02-.49.14-.99.23-1.5.29Z"/>
    </g>
    <g>
      <path class="cls-54" d="m16.62,0c-.14.08-.29.03-.43.04.14-.08.29-.03.43-.04Z"/>
      <g>
        <path class="cls-59" d="m3.37,27.37c-.72-1.33-1.35-2.7-1.88-4.11-.5-1.34-.93-2.7-1.21-4.11-.13-.66-.2-1.33-.25-2-.06-.85-.03-1.7.06-2.55.13-1.23.41-2.43.84-3.59.57-1.56,1.36-3.01,2.39-4.31.15-.07.17.04.18.14.02.16,0,.32.05.48,0,.11-.07.18-.12.26-1.45,2.04-2.35,4.29-2.68,6.77-.14,1.01-.13,2.04-.07,3.06.09,1.45.47,2.84.9,4.22.5,1.59,1.15,3.12,1.89,4.61.05.1.11.19.09.3-.03.2.01.41-.02.61-.02.1,0,.25-.17.22Z"/>
        <path class="cls-43" d="m32.06,7.8c.59.86,1.04,1.78,1.43,2.75.48,1.18.8,2.4.97,3.67.21,1.55.19,3.11-.1,4.66-.35,1.91-.97,3.74-1.71,5.53-.24.57-.48,1.15-.78,1.7-.14-.04-.08-.16-.08-.25.02-.31.03-.62,0-.92,0-.13.06-.25.11-.36.55-1.25,1-2.53,1.38-3.84.24-.83.44-1.66.55-2.51.14-1.02.14-2.05.08-3.08-.08-1.26-.34-2.47-.75-3.66-.3-.88-.68-1.73-1.14-2.54-.05-.09-.11-.18-.1-.3.02-.21,0-.42.02-.63,0-.08-.03-.2.12-.2Z"/>
        <path class="cls-38" d="m3.37,27.37c.14-.06.11-.19.12-.3.02-.18-.05-.37.04-.55.21.18.28.44.4.67.95,1.66,1.92,3.3,3.02,4.87.1.14.25.26.22.47-.05.14-.04.28-.05.42,0,.1,0,.23-.17.19-.96-1.34-1.87-2.72-2.7-4.15-.31-.53-.62-1.05-.88-1.6Z"/>
        <path class="cls-38" d="m3.52,7.33c-.12-.14-.06-.32-.07-.48,0-.09,0-.17-.13-.16.55-.77,1.21-1.44,1.9-2.08.76-.7,1.58-1.32,2.46-1.87.03-.02.07-.04.11-.05.14-.05.16.05.18.14.02.1.02.21.08.3.03.14-.09.16-.17.21-.6.39-1.17.82-1.72,1.28-.76.64-1.45,1.35-2.1,2.1-.18.21-.31.46-.55.61Z"/>
        <path class="cls-40" d="m15.64,43.31c-.64-.66-1.28-1.33-1.92-1.99-.02-.02-.05-.05-.08-.07-.35-.38-.7-.76-1.04-1.14-.37-.41-.73-.82-1.09-1.24.05-.13.08-.27.07-.41,0-.08,0-.17.1-.21.1-.01.15.06.21.12.58.66,1.16,1.31,1.76,1.96.63.68,1.27,1.35,1.93,2.01.08.07.16.15.16.27-.02.17-.03.33-.03.5,0,.08,0,.16-.06.21Z"/>
        <path class="cls-53" d="m27.4,33.45c-.58.85-1.21,1.67-1.85,2.48-.52.66-1.03,1.31-1.59,1.93-.15.04-.14-.08-.15-.16-.01-.15-.01-.29-.05-.44-.02-.12.06-.18.12-.26.91-1.12,1.82-2.25,2.67-3.42.22-.3.44-.61.66-.91.04-.06.08-.18.19-.06.08.28.09.56-.01.84Z"/>
        <path class="cls-54" d="m11.12,1.07c.93-.35,1.89-.6,2.88-.77.56-.1,1.12-.18,1.69-.24.15-.02.31,0,.47,0,.1.17.07.35.02.54-.11.11-.25.09-.38.1-1.46.13-2.88.44-4.26.89-.07.02-.15.05-.23.04-.05-.01-.09-.05-.09-.1,0-.15-.07-.29-.09-.44Z"/>
        <path class="cls-67" d="m23.69,1.16c.72.25,1.41.56,2.08.92.68.36,1.34.76,1.96,1.22.11.2.06.41.04.62-.09.14-.17.04-.25-.01-.41-.28-.81-.56-1.24-.82-.81-.49-1.65-.9-2.53-1.25-.07-.03-.18-.03-.17-.15.08-.17-.01-.37.1-.53Z"/>
        <path class="cls-37" d="m31.83,24.89c.08.33.05.65.02.98,0,.08-.05.15.02.22-.6,1.28-1.28,2.52-2.04,3.71-.11-.05-.1-.16-.11-.26,0-.2,0-.4-.03-.59-.01-.11.04-.19.09-.28.51-.88,1-1.77,1.45-2.69.15-.31.29-.63.44-.94.03-.07.04-.16.14-.16Z"/>
        <path class="cls-58" d="m29.74,28.89c.07.2.04.42.04.62,0,.1-.01.2.05.28-.65,1.11-1.38,2.18-2.12,3.23-.1.14-.18.3-.32.42,0-.29.04-.59-.04-.88-.04-.08.02-.14.05-.19.62-.89,1.22-1.8,1.79-2.72.12-.2.24-.4.36-.6.04-.07.07-.16.17-.17Z"/>
        <path class="cls-71" d="m11.72,38.28c-.16.05-.07.18-.08.27-.01.13.02.26-.13.33-.58-.69-1.17-1.38-1.75-2.07-.26-.31-.51-.64-.76-.96.09-.09.11-.2.11-.33,0-.1-.02-.22.1-.28.16.04.23.19.32.29.68.84,1.36,1.68,2.06,2.49.06.07.15.14.13.25Z"/>
        <path class="cls-3" d="m11.12,1.07c.1.1.15.21.13.35,0,.06-.01.13.06.16-.02.1-.12.11-.19.14-.96.36-1.89.8-2.77,1.33-.08.05-.16.15-.28.1-.14-.03-.13-.14-.14-.25,0-.1.02-.21-.13-.22.33-.26.71-.44,1.07-.63.73-.38,1.48-.71,2.25-.98Z"/>
        <path class="cls-32" d="m9.24,35.25c-.14.11-.06.26-.07.39,0,.12-.02.21-.17.2-.71-.89-1.4-1.79-2.04-2.73.15-.02.11-.13.12-.22.01-.14-.06-.31.1-.42.1,0,.14.09.19.16.57.81,1.16,1.61,1.77,2.39.05.07.14.12.1.23Z"/>
        <path class="cls-61" d="m20.96,41.26c-.35.37-.7.73-1.06,1.1-.05.06-.11.1-.17.16-.09-.08-.06-.19-.06-.3,0-.12,0-.24-.03-.35-.04-.12.05-.18.12-.25.69-.73,1.38-1.45,2.04-2.2.06-.07.12-.15.23-.12.11.08.1.21.11.33,0,.11,0,.21.02.32-.34.38-.69.76-1.03,1.14-.05.06-.1.12-.15.17Z"/>
        <path class="cls-65" d="m27.74,3.99c0-.23,0-.46,0-.69.9.63,1.73,1.35,2.48,2.16.02.23.05.47-.04.69-.09.1-.14,0-.18-.06-.18-.19-.37-.37-.56-.56-.48-.5-1.02-.94-1.56-1.38-.06-.05-.14-.08-.14-.18Z"/>
        <path class="cls-20" d="m30.13,6.19c.06-.16.04-.33.04-.5,0-.08,0-.15.04-.22.46.43.84.93,1.22,1.43.22.29.44.59.62.91-.1.07-.04.18-.06.27-.03.2.06.4-.05.59-.1,0-.12-.08-.16-.15-.46-.77-1-1.49-1.59-2.17-.04-.05-.1-.09-.07-.16Z"/>
        <path class="cls-52" d="m22.15,39.94c-.13-.04-.06-.15-.07-.23-.02-.14.05-.3-.1-.41,0-.11.07-.17.13-.24.51-.56.99-1.15,1.49-1.72.05-.05.08-.14.18-.13.12.13.08.29.09.44,0,.08-.03.18.09.2-.41.54-.87,1.03-1.32,1.54-.16.18-.33.36-.49.54Z"/>
        <path class="cls-50" d="m16.15.59c0-.18,0-.36,0-.54.01,0,.03,0,.04,0,.14-.06.29.01.43-.04.52,0,1.05,0,1.57,0,.07,0,.16-.02.22.04-.07.08-.14.15-.15.26-.04.29-.04.29-.35.31-.47.01-.95-.02-1.42.04-.11.01-.24.03-.34-.07Z"/>
        <path class="cls-16" d="m20.03.22c.63.07,1.26.19,1.87.38.08.22.03.44-.11.56-.09.02-.17,0-.25-.02-.5-.12-1.01-.22-1.51-.3-.07-.01-.16,0-.19-.1.03-.12.03-.25.04-.38,0-.08,0-.18.14-.14Z"/>
        <path class="cls-26" d="m21.76,1.12c.05,0,.09-.03.1-.09.01-.14.03-.29.05-.43.61.14,1.21.32,1.79.56,0,.13,0,.25,0,.38,0,.07,0,.14-.08.17-.07.06-.15.02-.22,0-.48-.19-.98-.32-1.47-.47-.06-.02-.14-.02-.16-.11Z"/>
        <path class="cls-17" d="m20.03.22c-.16.05-.06.18-.09.27-.02.08.06.21-.09.25-.19.12-.39.02-.58,0-.37-.02-.74-.08-1.11-.08-.09,0-.19.02-.23-.1.2.02.3-.04.27-.26-.02-.13.01-.27.21-.26.55,0,1.09.06,1.62.17Z"/>
        <path class="cls-35" d="m15.64,43.31c0-.26-.02-.51.04-.77.12-.04.16.06.22.12.39.38.78.77,1.16,1.16.11.11.23.21.38.25.08.21.06.42.03.63-.13.17-.24.14-.39,0-.4-.41-.82-.8-1.23-1.19-.04-.04-.07-.09-.13-.1-.03-.03-.06-.06-.08-.09Z"/>
        <path class="cls-24" d="m17.47,44.71c-.07-.13-.03-.27-.04-.41,0-.08.03-.17-.06-.23,0-.1.08-.15.14-.21.64-.64,1.27-1.28,1.91-1.91.06-.06.11-.16.22-.13.11.01.09.09.09.16,0,.18,0,.35,0,.53-.26.27-.51.53-.77.8-.4.39-.79.77-1.19,1.16-.12.06-.17.2-.3.24Z"/>
        <path class="cls-27" d="m19.64,41.82c-.76.75-1.52,1.5-2.27,2.25-.09.07-.13,0-.18-.05-.5-.49-1.01-.98-1.51-1.47-.78-.82-1.57-1.64-2.34-2.47-.55-.59-1.08-1.2-1.62-1.8-.64-.77-1.28-1.55-1.92-2.32-.19-.23-.38-.47-.57-.71-.69-.93-1.37-1.85-2.06-2.78-.69-1.02-1.38-2.03-2-3.08-.47-.8-.94-1.61-1.4-2.41-.09-.15-.16-.31-.23-.47-.22-.47-.44-.95-.66-1.42-.89-1.95-1.62-3.95-2.03-6.05-.6-3.11-.22-6.11,1.09-8.99.4-.87.88-1.7,1.44-2.48.05-.07.1-.15.15-.23.99-1.3,2.12-2.44,3.44-3.41.36-.26.73-.51,1.1-.76,1.03-.62,2.12-1.14,3.25-1.57,1.57-.54,3.18-.88,4.84-.99.59-.01,1.19-.02,1.78-.03.49.04.97.08,1.46.12.15.01.31.03.46.04.64.13,1.28.26,1.91.38.62.2,1.23.39,1.85.59.65.28,1.3.56,1.92.89.77.41,1.5.89,2.21,1.39.81.63,1.58,1.31,2.27,2.08.04.04.08.08.12.12.68.77,1.28,1.6,1.82,2.48.43.78.82,1.57,1.13,2.4.82,2.2,1.1,4.48.85,6.81-.2,1.83-.77,3.55-1.39,5.27-.22.59-.47,1.17-.71,1.75-.4.81-.77,1.62-1.2,2.41-.29.53-.59,1.06-.88,1.59-.56.89-1.1,1.79-1.69,2.65-.23.34-.46.68-.69,1.02-.47.64-.94,1.28-1.42,1.91-.7.93-1.43,1.83-2.17,2.73-.6.7-1.2,1.39-1.8,2.09-.67.72-1.35,1.45-2.02,2.17-.11.11-.23.21-.31.34Z"/>
        <path class="cls-63" d="m9.41,29.2c-.6-.8-1.13-1.65-1.64-2.5-1.13-1.88-2.1-3.84-2.76-5.94-.39-1.24-.68-2.51-.69-3.82-.01-2.91.98-5.45,2.86-7.66.96-1.12,2.09-2.04,3.36-2.78.04-.02.08-.04.11-.05.05.04.07.08.05.14-.34.27-.74.46-1.08.73-.08.06-.17.12-.25.19-1.44,1.07-2.6,2.39-3.47,3.95-.7,1.25-1.14,2.59-1.31,4-.11.88-.11,1.77,0,2.65.21,1.66.75,3.22,1.4,4.74.49,1.16,1.07,2.27,1.71,3.36.52.94,1.13,1.83,1.73,2.72.05.07.12.13.09.23-.03.04-.06.07-.11.05Z"/>
        <path class="cls-42" d="m27.7,9.6c1.09,1.34,1.84,2.85,2.26,4.53.22.89.35,1.79.33,2.69-.03,1.28-.21,2.55-.58,3.79-.47,1.55-1.08,3.03-1.84,4.45-.04.04-.08.04-.12.01-.06-.1,0-.18.05-.26.21-.43.43-.84.61-1.29.69-1.53,1.27-3.1,1.52-4.77.21-1.43.26-2.87-.08-4.29-.16-.73-.4-1.43-.68-2.12-.31-.67-.64-1.33-1.07-1.93-.14-.22-.3-.42-.46-.63-.05-.06-.13-.12-.06-.22.04-.02.08-.01.12.02Z"/>
        <path class="cls-25" d="m10.7,6.56s-.03-.07-.04-.11c.44-.28.92-.49,1.4-.7,1.57-.66,3.2-1.04,4.9-1.06.26-.02.51-.03.77,0h0s.02.07,0,.1c-.1.06-.21.04-.31.05-.52.02-1.04.05-1.56.1-.93.13-1.86.31-2.76.61-.75.25-1.46.57-2.16.94-.07.04-.14.11-.23.06Z"/>
        <path class="cls-33" d="m17,38.06c-1.05-.98-2.03-2.04-3-3.1-.59-.66-1.18-1.32-1.73-2.01-.02-.06,0-.1.04-.14.09-.01.12.06.17.11.68.8,1.37,1.59,2.07,2.37.18.21.37.41.57.61.64.65,1.24,1.33,1.9,1.95.05.04.1.08.1.15-.02.06-.05.1-.12.06Z"/>
        <path class="cls-13" d="m25.47,28.94c-.24.43-.56.82-.85,1.22-.96,1.31-1.99,2.58-3.07,3.8-.04.04-.08.08-.12.12-.04-.02-.06-.05-.07-.1.05-.25.26-.38.41-.56.46-.55.92-1.1,1.37-1.65.71-.9,1.42-1.81,2.06-2.76.04-.05.08-.1.14-.13.06-.02.11,0,.13.06Z"/>
        <path class="cls-34" d="m20.79,5.13c1.66.42,3.17,1.16,4.54,2.18.01,0,.02.02.03.03-.02.06-.07.08-.14.08-.09-.02-.17-.08-.24-.13-.52-.36-1.06-.7-1.62-.98-.69-.35-1.4-.65-2.15-.87-.13-.04-.28-.05-.39-.15-.03-.05-.05-.1-.02-.15Z"/>
        <path class="cls-22" d="m12.32,32.82s-.03.09-.04.13c-.97-1.14-1.86-2.33-2.73-3.54-.05-.07-.13-.11-.13-.21.03-.02.07-.03.1-.05.1,0,.13.08.17.14.7.98,1.43,1.94,2.18,2.88.11.14.23.27.34.41.05.07.14.13.12.24Z"/>
        <path class="cls-48" d="m25.47,28.94s-.07-.02-.11-.04c-.06-.09.01-.14.05-.2.07-.1.13-.2.2-.29.5-.7.94-1.43,1.37-2.17.08-.14.16-.28.24-.42.13-.17.21-.38.32-.56.05-.07.07-.17.17-.2.04,0,.09,0,.13,0-.62,1.21-1.34,2.36-2.1,3.49-.09.13-.19.26-.29.39Z"/>
        <path class="cls-45" d="m17,38.06c.05,0,.08-.02.09-.08.11-.05.2.17.32.03.56-.52,1.08-1.08,1.63-1.61.07-.06.12-.17.24-.14.04.03.05.06.03.11-.6.66-1.26,1.27-1.9,1.89-.09.09-.15.08-.22,0-.06-.07-.12-.13-.19-.2Z"/>
        <path class="cls-31" d="m25.23,7.38s.09-.03.13-.04c.73.51,1.36,1.12,1.95,1.79.14.15.28.3.39.48-.05,0-.09,0-.14,0-.21-.06-.3-.27-.43-.42-.38-.44-.81-.83-1.25-1.21-.18-.15-.35-.3-.54-.44-.05-.04-.13-.07-.12-.16Z"/>
        <path class="cls-47" d="m20.79,5.13s.05.08.04.13c-.1.07-.19.02-.29,0-.86-.21-1.72-.36-2.61-.38-.08,0-.18.01-.22-.09,0-.03,0-.06,0-.1,1.04,0,2.06.16,3.07.43Z"/>
        <path class="cls-14" d="m19.31,36.38l-.05-.11c-.01-.07.04-.12.08-.16.36-.39.72-.77,1.08-1.16.26-.28.52-.56.77-.85.05-.06.1-.14.2-.13.02.04.03.08.05.11-.68.79-1.39,1.56-2.13,2.3Z"/>
        <path class="cls-47" d="m17.73,4.69c-.26,0-.51,0-.77,0,.26-.04.51-.04.77,0Z"/>
        <path class="cls-57" d="m17.42,38.06c-.16.22-.23-.04-.34-.07-.75-.71-1.46-1.46-2.16-2.22-.31-.33-.61-.67-.92-1-.59-.63-1.13-1.3-1.7-1.95-.95-1.17-1.87-2.35-2.73-3.59-.02-.03-.05-.05-.07-.08-.48-.73-.98-1.44-1.42-2.18-.14-.24-.28-.47-.42-.71.07-.34-.04-.68-.08-1.01-.09-.77-.16-1.53-.23-2.3-.03-.29.05-.33.33-.26.19.05.34.18.49.28.8.55,1.69.89,2.63,1.1.18.04.35.1.54.09.48.08.96.13,1.44.16.48.03.96-.03,1.44-.05.83-.03,1.65-.12,2.47-.24.47-.07.93-.19,1.4-.28.21-.05.39-.14.44-.38.01-.06.05-.1.1-.13.19.04.27.22.16.42-.08.15-.23.23-.38.29-.35.14-.72.2-1.09.27-1.22.24-2.46.33-3.69.49-.36.05-.73.08-1.07.24-.16.08-.21.19-.18.36.22,1.42.5,2.82.91,4.2.42,1.39.89,2.75,1.51,4.07.69,1.47,1.49,2.89,2.48,4.19.07.09.16.16.14.3Z"/>
        <path class="cls-44" d="m11.33,24.21c-.54-.05-1.05-.2-1.56-.38-.63-.22-1.23-.51-1.76-.91-.14-.11-.31-.13-.45-.23-.1-.06-.16,0-.15.12.02.25.03.51.05.76.05.48.1.95.16,1.43.03.29.09.57.11.86.01.13.1.29-.07.4-.67-1.1-1.25-2.24-1.75-3.42-.59-1.39-1.08-2.8-1.32-4.29-.36-2.22-.06-4.35.89-6.39.87-1.88,2.16-3.42,3.81-4.66.02-.02.05-.03.07-.04.1.11.03.23,0,.34-.16.44-.32.88-.47,1.32-.74,2.2-1.21,4.46-1.49,6.76-.09.74-.16,1.49-.19,2.24,0,.25-.05.49-.04.74,0,.06,0,.13.02.19.18-.1.34-.24.53-.3.1.09.02.17-.01.24-.1.21-.21.42-.25.65-.2.81-.06,1.57.36,2.28.12.43.42.72.74.99.68.58,1.49.89,2.34,1.13.14.04.33,0,.42.17Z"/>
        <path class="cls-30" d="m7.76,18.76c-.15.16-.41.17-.52.39-.02.03-.04.07-.08.05-.04-.02-.04-.05-.04-.09,0-.25-.03-.5.01-.74.05-.3.04-.61.06-.91.08-.89.17-1.78.3-2.66.16-1.12.38-2.22.65-3.31.3-1.22.67-2.42,1.13-3.6.05-.14.12-.27.1-.43.41-.34.87-.61,1.33-.89.82-.45,1.66-.85,2.55-1.12.65-.2,1.3-.37,1.97-.45.19-.02.38-.08.58-.08.07-.03.14-.03.19.04.04.07,0,.14-.03.2-.2.32-.41.63-.6.95-1.04,1.71-1.78,3.54-2.36,5.45-.07.24-.15.47-.2.72-.05.21.1.34.19.5.02.04.08.03.12.01.06-.02.12-.03.19,0,.04.04.03.08,0,.11-.17.18-.31.38-.54.5-.21-.06-.31-.24-.42-.39-.72-.98-1.43-1.97-2.15-2.95-.15-.2-.34-.31-.59-.32-.12-.05-.17-.18-.26-.27-.05.1.01.24-.11.32-.19.14-.18.37-.19.56-.04.69-.08,1.38-.17,2.07-.02.12-.04.25.04.37,0,.38-.05.76-.11,1.14-.05.3-.08.61-.11.92,0,.07-.02.14.02.21.01.05-.03.13.05.16-.04.07-.16.1-.1.22-.06.52.2.83.71.83.21,0,.41-.04.61-.08.62-.13,1.24-.08,1.86-.12.04,0,.08.01.11.05.04.06.04.11.02.18-.04.1-.13.11-.23.13-1.04.15-1.98.51-2.81,1.16-.38.3-.71.64-.98,1.04-.05.07-.08.17-.19.18Z"/>
        <path class="cls-68" d="m27.28,25.83c-.49.9-1.02,1.77-1.62,2.6-.14,0-.15-.12-.18-.2-.52-1.22-.88-2.5-1.12-3.81-.16-.85-.24-1.71-.3-2.57-.02-.34.13-.55.38-.73.37-.26.79-.44,1.17-.69.04-.03.09-.05.12-.08.48-.31.98-.6,1.38-1.03.5-.54.85-1.15.91-1.9.02-.24-.04-.48-.12-.71-.13-.36-.31-.68-.54-.98-.07-.09-.15-.19-.17-.31,0-.13-.02-.26.03-.38,0-.02.02-.04.03-.05.07-.09.17-.16.21-.28.15-.24.4-.37.58-.59.26-.32.42-.65.38-1.07-.02-.35-.23-.59-.47-.8-.17-.15-.37-.26-.55-.4-.26-.2-.28-.37-.09-.63.19-.25.41-.47.61-.71.05-.06.1-.14.21-.12.45.59.77,1.24,1.07,1.92.04.08,0,.14-.04.19-.15.19-.22.41-.26.64-.09.46-.28.86-.56,1.23-.14.18-.27.38-.42.56-.2.24-.23.49-.1.77.07.15.12.3.18.45.4.93.29,1.83-.21,2.69-.25.43-.56.8-.87,1.18-.23.27-.33.57-.34.93-.02,1.54.21,3.04.61,4.52.03.12.09.22.12.34Z"/>
        <path class="cls-55" d="m27.28,25.83c-.13-.06-.14-.19-.17-.31-.23-.86-.41-1.74-.51-2.63-.09-.74-.12-1.48-.08-2.22.02-.34.25-.59.47-.83.57-.64,1.03-1.33,1.17-2.2.08-.51-.04-.98-.22-1.45-.06-.17-.13-.33-.2-.49-.13-.28-.08-.53.1-.77.2-.26.38-.52.58-.78.21-.29.34-.61.4-.97.05-.32.21-.59.38-.86.22.45.37.92.51,1.4.07.24.15.48.18.73-.17.37-.37.72-.54,1.08-.36.8-.56,1.64-.75,2.5-.24,1.04-.36,2.09-.36,3.16,0,.7.07,1.4.17,2.09.02.1.02.2.02.3-.2.51-.48.98-.7,1.48-.15.26-.3.52-.45.78Z"/>
        <path class="cls-51" d="m28.13,10.4c-.33.29-.61.63-.87.98-.11.15-.01.29.1.38.19.16.41.28.6.44.27.22.48.48.51.85-.11,0-.11-.11-.15-.18-.18-.34-.46-.54-.84-.59-.71-.31-1.47-.35-2.23-.36-.25,0-.5.02-.74-.02-.16-.13-.36-.13-.54-.15-.16-.02-.31-.05-.46-.09-.2-.06-.28-.22-.18-.41.08-.16.17-.31.26-.46.5-.8,1.03-1.56,1.69-2.23.2-.21.41-.41.63-.6.55.44,1.03.94,1.48,1.47.05.06.11.13.17.19.18.28.41.51.57.8Z"/>
        <path class="cls-28" d="m28.43,23.58c-.12-.17-.1-.38-.13-.57-.06-.36-.07-.73-.1-1.09-.02-.26-.04-.52-.04-.78,0-1.08.11-2.15.39-3.2.12-.48.17-.97.34-1.44.22-.62.48-1.22.79-1.8.05-.09.09-.19.19-.25.22.81.26,1.63.25,2.46-.02,1.85-.46,3.61-1.12,5.33-.18.45-.35.91-.58,1.34Z"/>
        <path class="cls-60" d="m25.91,7.94c0,.08-.07.12-.12.17-.87.8-1.57,1.73-2.18,2.73-.09.14-.18.29-.25.44-.07.14,0,.27.16.31.25.07.51.1.77.13.08,0,.16.02.18.12-.04.06-.11.06-.17.06-.5,0-.99.05-1.48.09-1.09.08-2.15.27-3.2.58-.36.11-.72.21-1.07.35-.1.04-.21.09-.3.16-.18.14-.18.27,0,.41.04.03.08.06.11.1.05.3.26.45.52.56.27.11.56.2.82.33.16.07.33.14.32.37-.07.09-.16.07-.25.07-.28,0-.55,0-.83,0-.11,0-.21.03-.31.05-.41.1-.47.3-.19.6.01.02.03.03.04.05.18.44.57.54.99.58.59.05,1.19.05,1.78.1.63.04,1.26.06,1.89.11.35.03.71.02,1.06.05.34.02.66.08.96.24.05.05.13.09.08.18-.09.05-.16,0-.24-.05-.22-.11-.45-.16-.7-.16-.91-.02-1.82.05-2.72.05-.44,0-.89.03-1.32.2-.11.04-.17.1-.19.2-.03.18-.05.35-.07.53-.01.09.02.17.08.23.26.24.35.57.43.88.06.24-.04.46-.17.66-.22.33-.2.37.19.42.08.01.17.02.25.03.07,0,.15,0,.16.1-.03.05-.08.08-.14.09-.57.1-1.13.26-1.72.27-.09-.01-.22.02-.26-.1-.04-.13.05-.22.13-.29.16-.13.33-.24.51-.35.14-.09.29-.18.41-.3.25-.24.26-.54.03-.79-.05-.06-.11-.11-.18-.15-.62-.42-1.26-.79-1.95-1.09-.28-.12-.56-.25-.83-.39-.08-.04-.18-.09-.17-.2,0-.11.11-.14.19-.17.37-.14.54-.41.62-.8.12-.6.06-1.19-.01-1.78-.12-1-.21-2-.32-3-.02-.17-.05-.34-.08-.5-.06-.3-.21-.51-.54-.54-.08-.06-.16-.1-.24,0-.08.05-.14.12-.2.19-.82.85-1.71,1.63-2.53,2.48-.04.05-.09.09-.14.12-.07.03-.11.11-.2.11-.01,0-.03,0-.04,0-.12-.05-.27.17-.34.03-.1-.21-.29-.4-.18-.7.24-.65.41-1.33.64-1.98.35-.97.75-1.93,1.22-2.85.38-.74.81-1.46,1.28-2.15.09-.13.14-.23-.09-.24.18-.07.38-.06.56-.07.45-.02.9-.07,1.36-.05.39.03.77.06,1.16.1.66.07,1.31.22,1.95.37,1.59.44,3.05,1.16,4.4,2.12.23.19.46.38.68.57Z"/>
        <path class="cls-60" d="m17.42,38.06c-.46-.63-.92-1.27-1.33-1.94-.53-.87-.99-1.77-1.42-2.69-.5-1.08-.9-2.2-1.26-3.33-.41-1.27-.73-2.57-.93-3.89-.04-.28-.09-.56-.15-.83-.07-.34.02-.47.36-.56.47-.12.94-.16,1.42-.21.53-.06,1.06-.16,1.59-.2.6-.04,1.19-.16,1.78-.27.29-.05.58-.14.86-.21.12-.03.22-.09.32-.17.18-.15.18-.32,0-.5-.02.01-.04.02-.06.02-.27-.13-.54-.26-.72-.52-.07-.29,0-.41.3-.49.32-.09.66-.15.99-.22.53-.07,1.04-.23,1.55-.34.42-.09.83-.23,1.26-.31.31-.02.61-.11.91-.17.1-.02.2-.06.31,0,.05.15-.08.14-.15.17-.39.16-.77.32-1.17.47-.39.14-.77.33-1.14.53-.17.09-.25.25-.23.44.23,2.56.84,5.03,1.91,7.38.21.46.44.91.69,1.35.04.07.12.15.07.25-.5.66-1.04,1.29-1.58,1.91-.07.08-.14.17-.21.26-.55.6-1.1,1.2-1.65,1.79-.16.17-.32.34-.48.51-.56.56-1.12,1.11-1.69,1.67-.04.04-.1.08-.15.12Z"/>
        <path class="cls-1" d="m23.18,31.79c-.22-.43-.45-.85-.66-1.28-.57-1.17-1-2.4-1.34-3.66-.2-.76-.36-1.52-.49-2.29-.08-.51-.16-1.01-.19-1.53-.02-.23-.06-.44.12-.63.13-.14.31-.19.46-.26.66-.3,1.34-.56,2.02-.83.05-.02.11-.04.14-.08.04-.07.11-.08.18-.1.72-.23,1.44-.45,2.14-.73.08-.03.16-.08.24-.02-.18.17-.41.27-.62.39-.18.11-.36.22-.55.32-.45.22-.54.59-.49,1.04.05.38.09.75.13,1.13.06.62.18,1.24.31,1.85.21.95.49,1.89.85,2.79.07.18.12.38.26.53-.08.17-.23.29-.29.47-.55.76-1.09,1.52-1.67,2.25-.17.22-.35.43-.52.64Z"/>
        <path class="cls-19" d="m18.62,23.24s.03,0,.05,0c-.03.08-.09.15-.1.25-.02.18-.18.26-.33.29-.72.17-1.44.32-2.18.4-.84.09-1.69.13-2.53.18-.74.05-1.46-.04-2.19-.14-.29-.08-.58-.16-.86-.25-.86-.27-1.66-.66-2.28-1.35-.17-.19-.36-.38-.39-.66.08,0,.12.05.16.09.82.93,1.91,1.34,3.07,1.63.58.14,1.16.2,1.75.18.45-.01.89,0,1.34,0,1.06-.02,2.11-.16,3.15-.35.45-.09.9-.2,1.36-.26Z"/>
        <path class="cls-18" d="m18.62,23.24c-.23.13-.5.14-.75.19-1.86.41-3.75.58-5.65.47-1.52-.09-2.96-.52-4.11-1.61-.11-.11-.21-.23-.31-.34-.47-.73-.59-1.51-.37-2.35.15-.32.27-.66.46-.96.43-.66,1-1.16,1.69-1.55,1.03-.58,2.15-.81,3.32-.83,1.33-.02,2.6.28,3.84.73.7.25,1.36.58,2,.93.06.03.11.06.18.06.32.11.59.33.86.52.13.1.05.18-.06.24-.81.47-1.62.94-2.39,1.55.26.02.48,0,.71,0,.34,0,.69-.02,1.03-.02.63-.02,1.25-.17,1.86-.31.24-.14.52-.16.79-.24.91-.28,1.83-.53,2.67-.97.32-.17.59-.39.82-.66.24-.29.27-.61.12-.96-.04-.09-.11-.17-.1-.28,0-.06-.07-.08-.09-.13-.09-.07-.18-.14-.25-.23-.21-.24-.49-.29-.79-.31-1-.05-2-.13-2.99-.21-.69-.05-1.37-.07-2.06-.14-.23-.02-.45-.05-.63-.22-.04-.03-.09-.07-.13-.1-.19-.17-.18-.35.03-.49.18-.12.39-.16.6-.17.28,0,.55,0,.83,0,.08,0,.17.01.25-.04.28-.19.27-.25-.03-.46-.38-.27-.84-.37-1.26-.54-.13-.05-.27-.08-.37-.2-.42-.29-.4-.51.08-.71.88-.37,1.8-.6,2.73-.78,1.1-.21,2.21-.28,3.32-.31.48.02.96.01,1.44.04.56.03,1.1.13,1.62.36.32.11.47.34.52.66-.01.3-.1.56-.33.78-.43.42-.86.85-1.34,1.22.13.13.25.25.38.38.44.45.76.98.91,1.6.05.75-.27,1.36-.75,1.9-.62.7-1.43,1.11-2.31,1.42-.12.04-.24.07-.36.13-.91.34-1.86.58-2.8.83-1.44.38-2.88.7-4.36.89-.02,0-.03,0-.04.03.21.17.44.32.67.47.08.05.18.1.21.2.22.18.46.33.7.47Z"/>
        <path class="cls-29" d="m18.91,18.03c-.08.07-.13-.02-.18-.04-1.21-.68-2.49-1.19-3.85-1.46-1.47-.3-2.93-.32-4.36.18-1.05.37-1.95.97-2.58,1.91-.16.24-.29.5-.39.78-.03.08-.04.17-.13.21.05-.31.22-.56.33-.85.52-.84,1.26-1.45,2.13-1.88.58-.29,1.22-.45,1.86-.55.06,0,.13,0,.18-.05.23-.1.47-.09.71-.1,1.81-.05,3.51.39,5.14,1.17.34.16.68.32,1,.52.06.04.16.05.14.16Z"/>
        <path class="cls-46" d="m11.93,16.12c-.08-.09-.16,0-.24,0-.59-.02-1.18.01-1.77.08-.21.03-.42.05-.63.04-.26-.01-.55-.27-.6-.53.32-.1.66-.09.99-.12,1.04-.1,2.08-.13,3.12-.09,1.21.05,2.42.15,3.62.36.23.04.38-.01.5-.21.06-.1.05-.17-.04-.23-.07-.14.06-.2.11-.29.09-.14.03-.29.02-.44-.15-1.39-.29-2.78-.44-4.17-.01-.11-.03-.21.04-.31.2-.01.31.07.39.3.1.31.11.63.15.94.11,1.06.22,2.11.33,3.17.03.23.01.45-.05.67-.05.16-.07.32-.1.48-.07.36-.35.58-.72.54-.2-.02-.41-.04-.61-.07-.95-.14-1.9-.07-2.85-.08-.36,0-.72-.05-1.08-.02-.05,0-.1-.01-.14-.05Z"/>
        <path class="cls-62" d="m11.93,16.12c1.11,0,2.22-.01,3.33,0,.43,0,.86.08,1.28.15.39.06.66-.12.73-.51.05-.33.2-.65.17-1-.05-.48-.11-.97-.16-1.45-.05-.46-.09-.93-.14-1.39-.05-.45-.07-.9-.17-1.34-.04-.19-.13-.33-.34-.35-.13-.12-.12-.25-.04-.39.42,0,.62.21.68.72.08.69.14,1.37.22,2.06.08.73.19,1.45.24,2.18.03.45-.03.92-.22,1.35-.1.22-.32.33-.55.42-.06.02-.14.03-.15.1-.01.09.08.12.13.14.43.21.86.4,1.29.61.57.27,1.1.58,1.61.95.32.23.49.68-.03,1.06-.24.17-.49.34-.73.51-.03.02-.07.04-.1.07-.07.06-.15.14-.12.23.03.09.14.03.21.05-.36.08-.72.1-1.09.08.08-.22.25-.36.43-.48.27-.18.53-.38.82-.53.26-.14.48-.3.46-.64.13-.06.14-.12,0-.2-.26-.17-.51-.34-.78-.49-.59-.38-1.23-.67-1.87-.94-1.39-.57-2.82-.88-4.33-.85-.26,0-.52.03-.79.04,0-.06,0-.11,0-.17Z"/>
        <path class="cls-6" d="m16.87,15.39c.08.03.16.05.27.08-.11.15-.22.29-.32.43-.04.06-.09.07-.16.06-.98-.15-1.96-.27-2.95-.34-.98-.07-1.97-.09-2.95-.03-.69.04-1.37.12-2.06.14-.09-.09-.1-.21-.09-.33-.04-.12.02-.19.14-.21.03-.05.09-.06.14-.07.59-.12,1.19-.16,1.79-.21.71-.06,1.42-.05,2.13-.04,1.3,0,2.57.17,3.84.43.08.02.17.03.23.1Z"/>
        <path class="cls-64" d="m13.31,12.8c.05-.04.1-.08.15-.12.04,0,.06.03.06.07-.16.27-.41.45-.62.67-.39.4-.4.4-.74-.05-.87-1.16-1.75-2.33-2.63-3.49-.04-.06-.07-.12-.16-.17-.04.3-.07.59-.11.88-.14,1.08-.26,2.17-.41,3.25-.04.29-.05.58-.1.87-.02.15.02.2.18.17.58-.13,1.17-.23,1.77-.28.76-.06,1.51-.18,2.27-.08.14.02.28,0,.43.02.09.01.18.04.09.16-.09.04-.18.03-.27.02-.42-.04-.85-.02-1.27,0-.59.03-1.19.06-1.78.14-.46.07-.91.15-1.36.23-.04,0-.08,0-.11-.02-.11,0-.1-.06-.09-.14.07-.56.13-1.11.2-1.67.02-.17.04-.34.05-.5-.08-.26.01-.52.04-.77.08-.68.14-1.36.24-2.04.01-.08,0-.16.08-.21.02-.12.04-.24.07-.4.11.13.2.24.29.35.08.03.13.11.18.17.85,1.14,1.71,2.27,2.57,3.4q.17.22.41.09c.21-.17.39-.36.57-.55Z"/>
        <path class="cls-49" d="m12.74,13.35s-.01.03-.02.04q-.2.21-.37-.02c-.88-1.17-1.77-2.34-2.65-3.51-.04-.06-.08-.12-.12-.18.28-.04.48.11.63.32.65.88,1.28,1.77,1.93,2.65.18.25.33.52.6.69Z"/>
        <path class="cls-44" d="m9.21,9.73c-.08.69-.16,1.39-.24,2.08-.04.31-.08.63-.12.94-.11.03-.07-.06-.07-.1-.01-.37.07-.74.1-1.11.02-.22.02-.44.04-.66.02-.33.01-.66.11-.98.03-.09.05-.19.18-.17Z"/>
        <path class="cls-44" d="m8.61,15.39c.05.11.07.22.09.33.04.06.1.09.15.16.13.2.31.33.58.32.17-.01.34,0,.5,0-.31.08-.63.12-.95.03-.24-.07-.49-.5-.37-.84Z"/>
        <path class="cls-44" d="m8.68,15.06s.05,0,.08-.01c.14-.04.14.02.1.12-.04,0-.08,0-.12.01-.06-.02-.14.02-.2-.03.01-.09.11-.03.14-.09Z"/>
        <path class="cls-70" d="m28,12.93c-.03-.32-.24-.51-.47-.68.4.04.66.26.84.6.04.07.07.14.1.21.07.63-.28,1.05-.72,1.43-.1.08-.19.17-.26.28-.06.09-.16.16-.21.25h0c-.12.13-.09.28-.04.43.08.25.28.41.41.63.22.37.4.75.43,1.18.03.35-.06.7-.2,1.03-.36.88-1.03,1.47-1.82,1.94-.09.05-.18.11-.27.16-.11.04-.21.07-.32.11-.74.27-1.48.52-2.24.74-.31.01-.6.12-.9.17-.11.02-.22.05-.33.04.01-.12.11-.11.19-.13.97-.31,1.95-.62,2.89-1.01.61-.25,1.18-.57,1.66-1.02.41-.38.74-.83.9-1.37.1-.34.12-.68,0-1.02-.15-.61-.49-1.12-.89-1.58.05-.47.42-.72.72-1.01.23-.21.44-.44.58-.73.11-.22.11-.43-.02-.64Z"/>
        <path class="cls-51" d="m27.23,15.43c-.11-.15-.13-.3.04-.42-.05.14-.04.28-.04.42Z"/>
        <path class="cls-51" d="m27.27,15.01c.02-.13.12-.19.21-.25-.02.13-.12.19-.21.25Z"/>
        <path class="cls-18" d="m13.5,14.65c0-.06-.05-.06-.09-.07-.74-.05-1.48-.05-2.23.02-.8.08-1.59.18-2.37.35-.11.02-.15,0-.14-.12.07-.55.13-1.11.2-1.66.06-.53.13-1.06.19-1.6.06-.5.12-1.01.2-1.51.02-.16-.03-.34.1-.52.2.26.4.52.59.78.8,1.06,1.59,2.12,2.38,3.18.17.22.17.22.37.02.27-.27.54-.55.81-.82.11-.17.28-.28.41-.42.74-.77,1.54-1.47,2.28-2.24.05-.06.12-.1.15-.17.07-.04.11-.27.2-.02,0,.13-.03.26.04.39.06.65.12,1.3.19,1.95.08.73.16,1.46.24,2.2.02.22.04.44.07.65.01.1,0,.15-.11.13-.11.04-.21,0-.31-.02-.99-.21-1.99-.35-3-.42-.07,0-.14,0-.19-.07Z"/>
        <path class="cls-72" d="m25.22,16.88c.36.47.33.98-.08,1.4-.45.47-1.03.72-1.62.94-.82.31-1.65.56-2.5.76-.03,0-.07,0-.1,0-.2-.06-.41-.06-.62-.08-.18-.01-.23-.09-.17-.25.05-.11.11-.21.18-.31.17-.25.19-.52.06-.78-.12-.24-.17-.51-.42-.69-.15-.11.02-.32,0-.48,0-.07.02-.15.03-.23.01-.17.08-.24.27-.3.36-.11.71-.13,1.07-.17.23-.03.47-.02.7-.02.73,0,1.45-.06,2.18-.05.32,0,.62.05.89.23.03.02.08.02.12.03Z"/>
        <path class="cls-10" d="m18.42,15.65c.58.24,1.2.19,1.8.24,1.38.11,2.77.2,4.16.29.39.03.57.3.76.57-.52-.25-1.08-.23-1.64-.26-.9-.04-1.79-.07-2.69-.14-.44-.03-.89,0-1.33-.07-.21-.03-.42-.05-.62-.13-.23-.1-.39-.25-.44-.5Z"/>
        <path class="cls-2" d="m18.33,13.64c.49.21,1.02.33,1.49.59.11.06.22.13.31.22.08.07.19.13.14.26-.05.12-.17.14-.28.14-.09-.26-.33-.31-.54-.39-.26-.11-.53-.19-.78-.33-.18-.1-.38-.21-.33-.48Z"/>
        <path class="cls-5" d="m16.37,9.87c.05.07-.02.1-.06.14-.79.77-1.57,1.55-2.36,2.32-.14.13-.29.25-.43.38-.02-.01-.04-.02-.05-.03.92-.9,1.84-1.79,2.76-2.69.04-.04.08-.1.15-.12Z"/>
        <path class="cls-7" d="m17.92,22.77c-.35-.23-.7-.47-1.05-.7,0-.02,0-.03.01-.05.25-.04.51-.07.76-.11,1.37-.19,2.72-.52,4.06-.87.86-.23,1.7-.49,2.55-.75.1.08,0,.11-.05.14-.12.08-.26.15-.4.2-1.22.48-2.46.91-3.73,1.23-.3.08-.6.16-.9.22-.29.07-.57.13-.86.2-.39.09-.41.12-.4.49Z"/>
        <path class="cls-66" d="m19.18,22.08c.54-.16,1.08-.3,1.62-.47,1.12-.34,2.24-.69,3.31-1.19.06-.03.16-.02.15-.13.44-.2.92-.32,1.34-.56.65-.36,1.23-.79,1.62-1.44.26-.43.43-.89.4-1.41.12.06.12.18.13.29.06.71-.24,1.29-.68,1.82-.71.85-1.69,1.26-2.69,1.63-.76.28-1.52.52-2.29.77-.03.01-.06.03-.09.05-.48.12-.95.25-1.43.35-.46.09-.91.26-1.38.29Z"/>
        <path class="cls-4" d="m12.38,18.67c1,.48,1.47,1.76.44,2.7-.98.9-2.78.95-3.82.1-.03-.02-.05-.05-.07-.08-.01-.03,0,0,0-.02-.67-.97-.1-1.99.71-2.46.55-.31,1.14-.44,1.78-.41.33.02.64.09.96.16Z"/>
        <path class="cls-73" d="m12.38,18.67c-.19.11-.36-.05-.54-.07-.97-.11-1.88.01-2.61.71-.5.47-.74,1.19-.34,1.89.04.06.07.12.05.2-.74-.56-.83-1.59-.2-2.28.85-.95,2.55-1.13,3.64-.45Z"/>
        <path class="cls-8" d="m19.69,18.73c.07.25.03.38-.21.54-.26.18-.53.35-.81.51-.27.16-.49.38-.7.6-.25,0-.49,0-.74,0,.74-.67,1.59-1.17,2.45-1.65Z"/>
        <path class="cls-12" d="m28,12.93c.17.14.21.32.11.58-.14.32-.36.59-.62.82-.22.2-.44.4-.62.64-.08.1,0,.27-.15.33-.06-.06-.13-.11-.19-.17q-.24-.23.03-.45c.44-.36.84-.76,1.24-1.17.16-.16.17-.38.2-.59Z"/>
        <path class="cls-23" d="m23.27,15.05c-.55,0-1.05-.13-1.45-.53-.43-.43-.42-1.04.03-1.44.49-.43,1.09-.55,1.73-.49.38.03.74.14,1.05.37.22.16.39.35.47.61.12.42-.07.83-.51,1.14-.4.27-.84.35-1.31.34Z"/>
        <path class="cls-9" d="m13.5,14.65c1.16.06,2.3.23,3.43.48.03,0,.05.02.08.03,0,.1-.09.14-.13.22-.6-.1-1.19-.22-1.8-.3-1.04-.14-2.09-.17-3.14-.16-1.03,0-2.05.11-3.07.24,0-.06-.01-.12-.1-.12.54-.16,1.09-.22,1.64-.29.86-.1,1.72-.14,2.58-.13.17,0,.34.01.51.02Z"/>
        <path class="cls-21" d="m10.03,21.14c-.23-.15-.45-.33-.56-.59-.19-.46-.03-.99.45-1.26.61-.35,1.25-.39,1.89-.07.25.13.42.33.55.57.24.32.15.65-.04.93-.35.54-.9.71-1.52.68-.2-.01-.41,0-.6-.11-.07-.04-.15-.05-.17-.14Z"/>
        <path class="cls-56" d="m10.03,21.14c.55.25,1.11.28,1.67.04.6-.27.83-.76.66-1.39.39.24.46.86.12,1.3-.55.69-1.62.79-2.31.3-.07-.05-.22-.09-.14-.24Z"/>
        <path class="cls-41" d="m24.09,14.84c-.79.24-1.54.19-2.19-.38-.42-.38-.4-.92,0-1.31.68-.64,2.1-.66,2.79-.03.09.08.2.16.23.3-.13.09-.22-.03-.33-.05-.07-.01-.14-.04-.2.02-.04.05-.01.11.01.16.26.51.12.91-.31,1.25-.01,0-.01.02-.02.04Z"/>
        <path class="cls-69" d="m24.09,14.84c-.09-.07,0-.09.03-.12.15-.14.28-.29.35-.49.09-.26-.04-.47-.12-.69-.08-.21-.03-.26.19-.25.14.01.25.14.4.13.21.35.14.72-.17,1.04-.19.19-.42.3-.67.38Z"/>
        <path class="cls-18" d="m22.33,13.79c0-.33.17-.53.42-.62.28-.1.58-.17.88-.08.36.11.59.39.57.72-.02.29-.31.58-.65.63-.34.05-.67.02-.96-.19-.17-.12-.26-.29-.26-.47Z"/>
      </g>
    </g>
  </g>
</svg>